<mxfile host="app.diagrams.net" modified="2021-01-01T09:16:16.113Z" agent="5.0 (Windows NT 10.0; Win64; x64) AppleWebKit/537.36 (KHTML, like Gecko) Chrome/87.0.4280.88 Safari/537.36" etag="bb1NiADoVKEAmD0F78zA" version="14.1.6" type="github">
  <diagram id="kgpKYQtTHZ0yAKxKKP6v" name="Page-1">
    <mxGraphModel dx="1038" dy="523" grid="1" gridSize="10" guides="1" tooltips="1" connect="1" arrows="1" fold="1" page="1" pageScale="1" pageWidth="850" pageHeight="1100" math="0" shadow="0">
      <root>
        <mxCell id="0" />
        <mxCell id="1" parent="0" />
        <mxCell id="zu01XNkdo3hgpXdUpyDp-1" value="" style="shape=umlLifeline;participant=umlActor;perimeter=lifelinePerimeter;whiteSpace=wrap;html=1;container=1;collapsible=0;recursiveResize=0;verticalAlign=top;spacingTop=36;outlineConnect=0;" parent="1" vertex="1">
          <mxGeometry x="120" y="40" width="20" height="400" as="geometry" />
        </mxCell>
        <mxCell id="zu01XNkdo3hgpXdUpyDp-5" value="" style="html=1;points=[];perimeter=orthogonalPerimeter;" parent="zu01XNkdo3hgpXdUpyDp-1" vertex="1">
          <mxGeometry x="5" y="80" width="10" height="310" as="geometry" />
        </mxCell>
        <mxCell id="zu01XNkdo3hgpXdUpyDp-2" value=":Giao diện" style="shape=umlLifeline;perimeter=lifelinePerimeter;whiteSpace=wrap;html=1;container=1;collapsible=0;recursiveResize=0;outlineConnect=0;" parent="1" vertex="1">
          <mxGeometry x="240" y="40" width="100" height="400" as="geometry" />
        </mxCell>
        <mxCell id="zu01XNkdo3hgpXdUpyDp-6" value="" style="html=1;points=[];perimeter=orthogonalPerimeter;" parent="zu01XNkdo3hgpXdUpyDp-2" vertex="1">
          <mxGeometry x="45" y="90" width="10" height="290" as="geometry" />
        </mxCell>
        <mxCell id="zu01XNkdo3hgpXdUpyDp-3" value=":Server" style="shape=umlLifeline;perimeter=lifelinePerimeter;whiteSpace=wrap;html=1;container=1;collapsible=0;recursiveResize=0;outlineConnect=0;size=30;" parent="1" vertex="1">
          <mxGeometry x="440" y="40" width="100" height="400" as="geometry" />
        </mxCell>
        <mxCell id="zu01XNkdo3hgpXdUpyDp-9" value="" style="html=1;points=[];perimeter=orthogonalPerimeter;" parent="zu01XNkdo3hgpXdUpyDp-3" vertex="1">
          <mxGeometry x="45" y="130" width="10" height="250" as="geometry" />
        </mxCell>
        <mxCell id="zu01XNkdo3hgpXdUpyDp-14" value="Xử lý nội dung" style="edgeStyle=orthogonalEdgeStyle;html=1;align=left;spacingLeft=2;endArrow=block;rounded=0;entryX=1;entryY=0;" parent="zu01XNkdo3hgpXdUpyDp-3" edge="1">
          <mxGeometry relative="1" as="geometry">
            <mxPoint x="55" y="240" as="sourcePoint" />
            <Array as="points">
              <mxPoint x="80" y="240" />
            </Array>
            <mxPoint x="60" y="260" as="targetPoint" />
          </mxGeometry>
        </mxCell>
        <mxCell id="ZK5vzvqSoas4yiolMOlN-3" value="Lưu vào database" style="html=1;verticalAlign=bottom;endArrow=block;" parent="zu01XNkdo3hgpXdUpyDp-3" target="ZK5vzvqSoas4yiolMOlN-1" edge="1">
          <mxGeometry width="80" relative="1" as="geometry">
            <mxPoint x="60" y="310" as="sourcePoint" />
            <mxPoint x="140" y="310" as="targetPoint" />
            <Array as="points">
              <mxPoint x="80" y="310" />
            </Array>
          </mxGeometry>
        </mxCell>
        <mxCell id="zu01XNkdo3hgpXdUpyDp-4" value="Người dùng" style="text;align=center;fontStyle=1;verticalAlign=middle;spacingLeft=3;spacingRight=3;strokeColor=none;rotatable=0;points=[[0,0.5],[1,0.5]];portConstraint=eastwest;" parent="1" vertex="1">
          <mxGeometry x="90" y="90" width="80" height="26" as="geometry" />
        </mxCell>
        <mxCell id="zu01XNkdo3hgpXdUpyDp-7" value="Mở giao diện chat" style="html=1;verticalAlign=bottom;endArrow=block;" parent="1" target="zu01XNkdo3hgpXdUpyDp-2" edge="1">
          <mxGeometry width="80" relative="1" as="geometry">
            <mxPoint x="140" y="140" as="sourcePoint" />
            <mxPoint x="310" y="140" as="targetPoint" />
          </mxGeometry>
        </mxCell>
        <mxCell id="zu01XNkdo3hgpXdUpyDp-8" value="Hiển thị giao diện chat" style="html=1;verticalAlign=bottom;endArrow=block;" parent="1" edge="1">
          <mxGeometry width="80" relative="1" as="geometry">
            <mxPoint x="280" y="160" as="sourcePoint" />
            <mxPoint x="140" y="160" as="targetPoint" />
            <Array as="points">
              <mxPoint x="210" y="160" />
            </Array>
          </mxGeometry>
        </mxCell>
        <mxCell id="zu01XNkdo3hgpXdUpyDp-10" value="Lắng nghe" style="html=1;verticalAlign=bottom;endArrow=open;dashed=1;endSize=8;entryX=1;entryY=0.28;entryDx=0;entryDy=0;entryPerimeter=0;" parent="1" target="zu01XNkdo3hgpXdUpyDp-6" edge="1">
          <mxGeometry relative="1" as="geometry">
            <mxPoint x="480" y="211" as="sourcePoint" />
            <mxPoint x="490" y="200" as="targetPoint" />
          </mxGeometry>
        </mxCell>
        <mxCell id="zu01XNkdo3hgpXdUpyDp-11" value="Viết nội dung chat" style="html=1;verticalAlign=bottom;endArrow=block;" parent="1" target="zu01XNkdo3hgpXdUpyDp-2" edge="1">
          <mxGeometry width="80" relative="1" as="geometry">
            <mxPoint x="140" y="180" as="sourcePoint" />
            <mxPoint x="320" y="240" as="targetPoint" />
            <Array as="points">
              <mxPoint x="230" y="180" />
            </Array>
          </mxGeometry>
        </mxCell>
        <mxCell id="zu01XNkdo3hgpXdUpyDp-12" value="Gửi nội dung lên hệ thống" style="html=1;verticalAlign=bottom;endArrow=block;exitX=1.36;exitY=0.526;exitDx=0;exitDy=0;exitPerimeter=0;" parent="1" source="zu01XNkdo3hgpXdUpyDp-6" edge="1">
          <mxGeometry width="80" relative="1" as="geometry">
            <mxPoint x="490" y="260" as="sourcePoint" />
            <mxPoint x="480" y="283" as="targetPoint" />
          </mxGeometry>
        </mxCell>
        <mxCell id="zu01XNkdo3hgpXdUpyDp-15" value="Gửi về nội dung chat" style="html=1;verticalAlign=bottom;endArrow=open;dashed=1;endSize=8;" parent="1" source="zu01XNkdo3hgpXdUpyDp-3" edge="1">
          <mxGeometry relative="1" as="geometry">
            <mxPoint x="570" y="320" as="sourcePoint" />
            <mxPoint x="300" y="370" as="targetPoint" />
            <Array as="points">
              <mxPoint x="420" y="370" />
            </Array>
          </mxGeometry>
        </mxCell>
        <mxCell id="zu01XNkdo3hgpXdUpyDp-17" value="Hiển thị nội dung chat của người dùng&amp;nbsp;" style="html=1;verticalAlign=bottom;endArrow=block;" parent="1" source="zu01XNkdo3hgpXdUpyDp-2" edge="1">
          <mxGeometry x="0.2857" y="20" width="80" relative="1" as="geometry">
            <mxPoint x="280" y="330" as="sourcePoint" />
            <mxPoint x="140" y="390" as="targetPoint" />
            <Array as="points">
              <mxPoint x="240" y="390" />
            </Array>
            <mxPoint as="offset" />
          </mxGeometry>
        </mxCell>
        <mxCell id="ZK5vzvqSoas4yiolMOlN-1" value=":Database&amp;nbsp;" style="shape=umlLifeline;perimeter=lifelinePerimeter;whiteSpace=wrap;html=1;container=1;collapsible=0;recursiveResize=0;outlineConnect=0;" parent="1" vertex="1">
          <mxGeometry x="620" y="40" width="100" height="400" as="geometry" />
        </mxCell>
        <mxCell id="ZK5vzvqSoas4yiolMOlN-2" value="" style="html=1;points=[];perimeter=orthogonalPerimeter;" parent="ZK5vzvqSoas4yiolMOlN-1" vertex="1">
          <mxGeometry x="45" y="270" width="10" height="110" as="geometry" />
        </mxCell>
        <mxCell id="ZK5vzvqSoas4yiolMOlN-7" value="Hiện nội dung chat" style="html=1;verticalAlign=bottom;endArrow=block;entryX=-0.18;entryY=0.265;entryDx=0;entryDy=0;entryPerimeter=0;" parent="ZK5vzvqSoas4yiolMOlN-1" target="ZK5vzvqSoas4yiolMOlN-6" edge="1">
          <mxGeometry width="80" relative="1" as="geometry">
            <mxPoint x="60" y="330" as="sourcePoint" />
            <mxPoint x="140" y="330" as="targetPoint" />
          </mxGeometry>
        </mxCell>
        <mxCell id="ZK5vzvqSoas4yiolMOlN-4" value="" style="shape=umlLifeline;participant=umlActor;perimeter=lifelinePerimeter;whiteSpace=wrap;html=1;container=1;collapsible=0;recursiveResize=0;verticalAlign=top;spacingTop=36;outlineConnect=0;" parent="1" vertex="1">
          <mxGeometry x="790" y="40" width="20" height="400" as="geometry" />
        </mxCell>
        <mxCell id="ZK5vzvqSoas4yiolMOlN-6" value="" style="html=1;points=[];perimeter=orthogonalPerimeter;" parent="ZK5vzvqSoas4yiolMOlN-4" vertex="1">
          <mxGeometry x="5" y="310" width="10" height="70" as="geometry" />
        </mxCell>
        <mxCell id="ZK5vzvqSoas4yiolMOlN-5" value="Người dùng khác" style="text;align=center;fontStyle=1;verticalAlign=middle;spacingLeft=3;spacingRight=3;strokeColor=none;rotatable=0;points=[[0,0.5],[1,0.5]];portConstraint=eastwest;" parent="1" vertex="1">
          <mxGeometry x="760" y="90" width="80" height="26" as="geometry" />
        </mxCell>
      </root>
    </mxGraphModel>
  </diagram>
</mxfile>
